<?xml version="1.0" encoding="utf-8"?>
<!-- Generator: Adobe Illustrator 16.0.0, SVG Export Plug-In . SVG Version: 6.00 Build 0)  -->
<!DOCTYPE svg PUBLIC "-//W3C//DTD SVG 1.1//EN" "http://www.w3.org/Graphics/SVG/1.1/DTD/svg11.dtd">
<svg version="1.1" id="Layer_1" xmlns="http://www.w3.org/2000/svg" xmlns:xlink="http://www.w3.org/1999/xlink" x="0px" y="0px"
	 width="49.517px" height="36.978px" viewBox="0 0 49.517 36.978" enable-background="new 0 0 49.517 36.978" xml:space="preserve">
<path fill="#4B1B85" d="M3.906,21.707h34.119l-9.122,9.123c-1.259,1.26-1.259,3.301,0,4.559c1.259,1.26,3.3,1.26,4.559,0
	l14.625-14.625l0,0c0.149-0.148,0.283-0.315,0.401-0.492c0.049-0.071,0.081-0.15,0.123-0.225c0.06-0.109,0.125-0.214,0.174-0.331
	c0.038-0.094,0.06-0.192,0.089-0.289c0.032-0.104,0.072-0.205,0.094-0.314c0.032-0.165,0.044-0.332,0.05-0.498
	c0.002-0.044,0.014-0.085,0.014-0.131c0-0.05-0.014-0.096-0.015-0.146c-0.008-0.161-0.018-0.322-0.05-0.482
	c-0.022-0.115-0.063-0.222-0.098-0.332c-0.028-0.09-0.048-0.182-0.084-0.27c-0.052-0.125-0.121-0.241-0.188-0.357
	c-0.037-0.065-0.065-0.135-0.107-0.198c-0.119-0.18-0.256-0.347-0.408-0.498L33.461,1.582c-0.63-0.629-1.455-0.944-2.28-0.944
	s-1.649,0.315-2.279,0.944c-1.259,1.259-1.259,3.3,0,4.558l9.122,9.122H3.906c-1.78,0-3.224,1.443-3.224,3.223
	S2.125,21.707,3.906,21.707z"/>
</svg>
