<?xml version="1.0" encoding="utf-8"?>
<!-- Generator: Adobe Illustrator 16.0.0, SVG Export Plug-In . SVG Version: 6.00 Build 0)  -->
<!DOCTYPE svg PUBLIC "-//W3C//DTD SVG 1.1//EN" "http://www.w3.org/Graphics/SVG/1.1/DTD/svg11.dtd">
<svg version="1.1" id="Layer_1" xmlns="http://www.w3.org/2000/svg" xmlns:xlink="http://www.w3.org/1999/xlink" x="0px" y="0px"
	 width="374px" height="430px" viewBox="290.5 8.5 374 430" enable-background="new 290.5 8.5 374 430" xml:space="preserve">
<title>34</title>
<path fill="#518DD3" d="M480,425.6c92.78,0.004,167.996-75.205,168.001-167.985c0.004-82.41-59.771-152.655-141.121-165.837V67.2
	h26.022c2.948,0,5.338-2.391,5.338-5.338V27.738c0-2.948-2.39-5.338-5.338-5.338H427.098c-2.948,0-5.338,2.39-5.338,5.338v34.125
	c0,2.947,2.39,5.338,5.338,5.338h26.022v24.577c-91.585,14.841-153.799,101.116-138.958,192.702
	C327.345,365.828,397.59,425.604,480,425.6z M480,112c80.413,0,145.6,65.188,145.6,145.6s-65.187,145.6-145.6,145.6
	c-80.413,0-145.6-65.188-145.6-145.6C334.491,177.225,399.625,112.091,480,112z M597.331,257.6H480V140.269
	c64.782-0.018,117.313,52.484,117.331,117.267C597.331,257.557,597.331,257.578,597.331,257.6z M655.964,124.891l-17.711,17.711
	c-2.085,2.085-5.464,2.085-7.549,0l-35.706-35.706c-2.085-2.084-2.085-5.464,0-7.549l17.711-17.711c2.084-2.084,5.464-2.084,7.548,0
	h0.001l35.706,35.706C658.048,119.427,658.048,122.806,655.964,124.891L655.964,124.891z M321.747,142.602l-17.71-17.711
	c-2.085-2.084-2.085-5.464,0-7.548c0,0,0-0.001,0-0.001l35.706-35.706c2.084-2.084,5.464-2.084,7.549,0l0,0l17.711,17.711
	c2.084,2.085,2.084,5.465,0,7.549l-35.706,35.706C327.211,144.687,323.832,144.687,321.747,142.602z"/>
</svg>
